<svg width="19" height="20" viewBox="0 0 19 20" fill="none" xmlns="http://www.w3.org/2000/svg">
<g clip-path="url(#clip0_38_516)">
<path d="M13.3664 10.4389L13.0229 4.55957H10.2504V7.19961H9.0786V4.55957H4.56536V7.19961H3.39354V4.55957H0.620999L0.00520563 15.101C-0.042722 15.9218 0.241563 16.7032 0.805718 17.3013C1.36987 17.8993 2.13336 18.2287 2.95551 18.2287H9.45566C9.07638 17.4902 8.86217 16.6536 8.86217 15.7679C8.86217 13.0945 10.8134 10.8687 13.3664 10.4389Z" fill="#00963F"/>
<path d="M4.56538 3.42841C4.56538 2.18413 5.57768 1.17182 6.82196 1.17182C8.06625 1.17182 9.07858 2.18413 9.07858 3.42841V4.55918H10.2504V3.42841C10.2504 1.53798 8.71243 0 6.82196 0C4.9315 0 3.39355 1.53798 3.39355 3.42841V4.55918H4.56538V3.42841Z" fill="#00963F"/>
<path d="M18.4989 15.7679C18.4989 13.4341 16.6002 11.5354 14.2664 11.5354C11.9326 11.5354 10.0339 13.4341 10.0339 15.7679C10.0339 18.1017 11.9326 20.0004 14.2664 20.0004C16.6002 20.0004 18.4989 18.1017 18.4989 15.7679ZM13.6327 17.8408L11.7295 15.6883L12.6074 14.9121L13.6705 16.1145L15.8723 13.8339L16.7154 14.6477L13.6327 17.8408Z" fill="#00963F"/>
</g>
<defs>
<clipPath id="clip0_38_516">
<rect width="19" height="20" fill="white"/>
</clipPath>
</defs>
</svg>
